# xmcd
#
# Track frame offsets:
#	150
#	16546
#	28760
#	41522
#	56274
#	64608
#	79234
#	90015
#
# Disc length: 1349 seconds
#
# Revision: 1
# Processed by: cddbd v1.5.2PL0 Copyright (c) Steve Scherf et al.
# Submitted via: audiograbber 1.83.01
#
DISCID=4b054308
DTITLE=Dakota - Dakota
DYEAR=1900
DGENRE=Rock
TTITLE0=Lovely Lady
TTITLE1=Lonely Wind
TTITLE2=Walkin' The Dog
TTITLE3=Hey Boy
TTITLE4=Roll
TTITLE5=I've Been Told Before
TTITLE6=Back To The Country
TTITLE7=Dakota Jim
EXTD=
EXTT0=
EXTT1=
EXTT2=
EXTT3=
EXTT4=
EXTT5=
EXTT6=
EXTT7=
PLAYORDER=
